Coordinates
version=1
nRows=31
nColumns=38
inDegrees=no

Units are S.I. units (second, meters, Newtons, ...)
If the header above contains a line with 'inDegrees', this indicates whether rotational values are in degrees (yes) or radians (no).

endheader
time	pelvis_tilt	pelvis_list	pelvis_rotation	pelvis_tx	pelvis_ty	pelvis_tz	hip_flexion_r	hip_adduction_r	hip_rotation_r	knee_angle_r	ankle_angle_r	subtalar_angle_r	mtp_angle_r	hip_flexion_l	hip_adduction_l	hip_rotation_l	knee_angle_l	ankle_angle_l	subtalar_angle_l	mtp_angle_l	lumbar_extension	lumbar_bending	lumbar_rotation	arm_flex_r	arm_add_r	arm_rot_r	elbow_flex_r	pro_sup_r	wrist_flex_r	wrist_dev_r	arm_flex_l	arm_add_l	arm_rot_l	elbow_flex_l	pro_sup_l	wrist_flex_l	wrist_dev_l
55	-0.0119592	1.46323	1.56061	0.664785	0.859228	1.0292	0.29485	-0.115743	-0.228416	0.573275	-0.212227	0	0	0.204334	-0.0953696	-0.383544	0.435379	-0.312169	0	0	0.0489985	0.0998039	-0.328911	0.393919	-0.133283	0.459675	0	1.5708	0	0	-0.328175	-0.219511	-0.0140685	0.854583	1.41005	0	0
55.01	-0.0296749	1.46138	1.57528	0.66516	0.857875	1.02686	0.310079	-0.11874	-0.22572	0.598518	-0.202414	0	0	0.215739	-0.0973484	-0.384595	0.456125	-0.300458	0	0	0.0430338	0.102421	-0.325165	0.400035	-0.13585	0.455677	0	1.5708	0	0	-0.322653	-0.219547	-0.0159444	0.855341	1.41238	0	0
55.02	-0.054543	1.45967	1.59741	0.665588	0.856596	1.02415	0.32314	-0.123771	-0.223308	0.619354	-0.192543	0	0	0.227584	-0.0984369	-0.385664	0.478289	-0.288046	0	0	0.0377202	0.104129	-0.321731	0.405654	-0.138526	0.452538	0	1.5708	0	0	-0.317886	-0.219816	-0.0180483	0.85619	1.4158	0	0
55.03	-0.072542	1.45805	1.61271	0.665996	0.855308	1.02135	0.336631	-0.127872	-0.221375	0.64133	-0.182711	0	0	0.239985	-0.100192	-0.385865	0.501515	-0.275161	0	0	0.0319666	0.10695	-0.31817	0.411322	-0.141611	0.449328	0	1.5708	0	0	-0.312341	-0.219627	-0.0202543	0.856233	1.42067	0	0
55.04	-0.0870807	1.45603	1.62478	0.666391	0.853985	1.01831	0.35089	-0.132107	-0.219692	0.66455	-0.172908	0	0	0.253431	-0.102572	-0.384739	0.526457	-0.261727	0	0	0.0266067	0.110364	-0.314836	0.417064	-0.144949	0.446598	0	1.5708	0	0	-0.306709	-0.218922	-0.0232312	0.856085	1.42716	0	0
55.05	-0.0960258	1.45306	1.63098	0.666801	0.852542	1.01508	0.367114	-0.136015	-0.219044	0.689283	-0.163508	0	0	0.268458	-0.10548	-0.381723	0.552406	-0.24787	0	0	0.0219074	0.114677	-0.31112	0.42296	-0.148626	0.44391	0	1.5708	0	0	-0.300572	-0.217467	-0.0270355	0.855263	1.43539	0	0
55.06	-0.0963762	1.44747	1.62859	0.667068	0.851199	1.0114	0.386634	-0.139002	-0.218301	0.715475	-0.143465	0	0	0.287225	-0.1091	-0.378127	0.580678	-0.21954	0	0	0.0177447	0.119363	-0.309098	0.430481	-0.151844	0.433005	0	1.5708	0	0	-0.29833	-0.198108	-0.0766588	0.856942	1.49857	0	0
55.07	-0.10273	1.44543	1.6329	0.667238	0.849823	1.0079	0.401184	-0.14187	-0.216436	0.738462	-0.133273	0	0	0.301645	-0.111393	-0.374038	0.606807	-0.20433	0	0	0.0113365	0.124591	-0.306422	0.437611	-0.156108	0.429111	0	1.5708	0	0	-0.292512	-0.192249	-0.0907544	0.857095	1.51959	0	0
55.08	-0.107101	1.44283	1.63541	0.667434	0.848461	1.0042	0.416268	-0.144708	-0.214647	0.761636	-0.120623	0	0	0.316631	-0.113687	-0.368283	0.633106	-0.186116	0	0	0.00578049	0.130108	-0.303411	0.444364	-0.161052	0.424925	0	1.5708	0	0	-0.286815	-0.185633	-0.106587	0.857542	1.54273	0	0
55.09	-0.114656	1.441	1.64141	0.667625	0.8471	1.00039	0.430523	-0.148086	-0.212484	0.785006	-0.109701	0	0	0.330603	-0.115166	-0.361435	0.659202	-0.170429	0	0	-0.000275324	0.135558	-0.300221	0.450979	-0.166484	0.423071	0	1.5708	0	0	-0.280782	-0.181616	-0.115938	0.858264	1.55788	0	0
55.1	-0.126264	1.43915	1.65184	0.667764	0.845788	0.996398	0.44472	-0.152128	-0.210211	0.808823	-0.0976306	0	0	0.344503	-0.11529	-0.35382	0.684831	-0.153693	0	0	-0.00592602	0.140619	-0.297337	0.457193	-0.172174	0.421959	0	1.5708	0	0	-0.275218	-0.178489	-0.123061	0.859523	1.56925	0	0
55.11	-0.138333	1.43646	1.66241	0.668016	0.844518	0.992161	0.459943	-0.156124	-0.207905	0.832748	-0.0834652	0	0	0.359325	-0.114545	-0.344919	0.710108	-0.134018	0	0	-0.00998653	0.145528	-0.294062	0.462245	-0.178181	0.425417	0	1.56626	0	0	-0.270454	-0.175804	-0.128518	0.861176	1.5708	0	0
55.12	-0.149185	1.43394	1.67166	0.668342	0.843223	0.9878	0.474727	-0.15968	-0.205445	0.856078	-0.0716137	0	0	0.373751	-0.113756	-0.335171	0.735011	-0.117606	0	0	-0.0142354	0.150744	-0.290073	0.467365	-0.184843	0.430059	0	1.55186	0	0	-0.265384	-0.173668	-0.132528	0.862982	1.5708	0	0
55.13	-0.162568	1.43111	1.68392	0.668647	0.84193	0.983245	0.489899	-0.163428	-0.201863	0.879267	-0.0595899	0	0	0.388425	-0.111865	-0.324166	0.759662	-0.101072	0	0	-0.0179381	0.15538	-0.286322	0.47216	-0.191715	0.435998	0	1.53991	0	0	-0.260659	-0.171794	-0.1364	0.865279	1.5708	0	0
55.14	-0.17957	1.42804	1.70085	0.66888	0.840632	0.978533	0.505395	-0.167862	-0.197805	0.903062	-0.0475195	0	0	0.403262	-0.108111	-0.310918	0.783632	-0.0844934	0	0	-0.0210957	0.158994	-0.283394	0.476524	-0.198335	0.442624	0	1.52979	0	0	-0.255998	-0.170488	-0.139828	0.867673	1.5708	0	0
55.15	-0.20116	1.42529	1.72326	0.669085	0.839325	0.973731	0.520608	-0.172963	-0.192994	0.92705	-0.035639	0	0	0.417603	-0.102482	-0.295956	0.807093	-0.0680749	0	0	-0.0243614	0.161417	-0.281035	0.480804	-0.204588	0.449708	0	1.521	0	0	-0.251089	-0.170107	-0.142346	0.869913	1.5708	0	0
55.16	-0.228949	1.42409	1.75076	0.669475	0.837903	0.968985	0.534766	-0.177648	-0.185801	0.951642	-0.0241095	0	0	0.429604	-0.0961451	-0.281701	0.829933	-0.0520763	0	0	-0.0298479	0.162745	-0.276956	0.485568	-0.210593	0.457848	0	1.51397	0	0	-0.244913	-0.170942	-0.14344	0.871504	1.5708	0	0
55.17	-0.259675	1.42332	1.78006	0.669989	0.836552	0.964217	0.548726	-0.181548	-0.176325	0.976121	-0.0130051	0	0	0.440568	-0.0899096	-0.26911	0.852824	-0.0366469	0	0	-0.0360344	0.163275	-0.271461	0.489789	-0.21642	0.465482	0	1.50781	0	0	-0.238413	-0.172321	-0.143648	0.872592	1.5708	0	0
55.18	-0.29245	1.42243	1.81105	0.670519	0.835309	0.95939	0.562739	-0.185292	-0.166273	1.00125	-0.00213387	0	0	0.45134	-0.0839611	-0.258686	0.876115	-0.0219474	0	0	-0.0421678	0.163214	-0.265582	0.493405	-0.221981	0.471565	0	1.50122	0	0	-0.231979	-0.173915	-0.143175	0.873386	1.5708	0	0
55.19	-0.326005	1.4213	1.84253	0.671074	0.834183	0.954471	0.576981	-0.188914	-0.155888	1.02655	0.00838214	0	0	0.462259	-0.0783286	-0.249748	0.900147	-0.00795572	0	0	-0.0480369	0.162734	-0.259537	0.496397	-0.22729	0.476206	0	1.49395	0	0	-0.225933	-0.175664	-0.142123	0.874097	1.5708	0	0
55.2	-0.358539	1.42012	1.87256	0.67165	0.833152	0.949453	0.591231	-0.192109	-0.145201	1.0517	0.018801	0	0	0.473251	-0.0733707	-0.242392	0.925052	0.0055565	0	0	-0.0538654	0.162231	-0.253311	0.499127	-0.232449	0.479718	0	1.48599	0	0	-0.220356	-0.177341	-0.141038	0.875077	1.5708	0	0
55.21	-0.389528	1.41886	1.90058	0.672211	0.832234	0.944378	0.605126	-0.194754	-0.134797	1.0767	0.029622	0	0	0.48407	-0.0691965	-0.236822	0.950188	0.0187135	0	0	-0.0596092	0.161799	-0.247314	0.501774	-0.237181	0.481468	0	1.47642	0	0	-0.215478	-0.178894	-0.139918	0.876301	1.5708	0	0
55.22	-0.418192	1.41738	1.92647	0.672684	0.831419	0.93923	0.618598	-0.197335	-0.125349	1.10125	0.0406141	0	0	0.49498	-0.0654708	-0.232064	0.975328	0.031538	0	0	-0.064909	0.161559	-0.242316	0.504592	-0.241385	0.481889	0	1.46546	0	0	-0.211413	-0.180297	-0.138888	0.877847	1.5708	0	0
55.23	-0.444699	1.41549	1.95038	0.67312	0.830724	0.933984	0.632051	-0.199935	-0.115991	1.12418	0.0514799	0	0	0.505947	-0.0622374	-0.228031	1.00031	0.0441266	0	0	-0.0693047	0.161291	-0.238259	0.507409	-0.245263	0.482269	0	1.45436	0	0	-0.208404	-0.181661	-0.137994	0.879643	1.5708	0	0
55.24	-0.467936	1.41354	1.97105	0.67355	0.830135	0.928677	0.64512	-0.201992	-0.1067	1.14627	0.0624533	0	0	0.516826	-0.0595627	-0.224145	1.02532	0.0564197	0	0	-0.0729237	0.161286	-0.234869	0.509951	-0.248891	0.483101	0	1.44389	0	0	-0.206221	-0.182912	-0.137182	0.881381	1.5708	0	0
55.25	-0.488952	1.41162	1.98984	0.673926	0.829637	0.923352	0.65753	-0.203935	-0.098169	1.16794	0.0736063	0	0	0.527477	-0.0573711	-0.220817	1.05027	0.0681243	0	0	-0.0758493	0.161543	-0.23231	0.512186	-0.252312	0.483821	0	1.43341	0	0	-0.204489	-0.18412	-0.136058	0.882549	1.5708	0	0
55.26	-0.508878	1.40975	2.00822	0.674193	0.829255	0.918061	0.669121	-0.206187	-0.0904836	1.18953	0.0848834	0	0	0.537815	-0.0551456	-0.217762	1.07501	0.0790111	0	0	-0.0782496	0.162062	-0.230622	0.51411	-0.255815	0.484788	0	1.42333	0	0	-0.202848	-0.185198	-0.134313	0.882867	1.5708	0	0
55.27	-0.528512	1.40821	2.02721	0.674352	0.82894	0.912848	0.679391	-0.208769	-0.083838	1.21038	0.0956875	0	0	0.547644	-0.0527112	-0.214861	1.09933	0.0889551	0	0	-0.0805551	0.162824	-0.229775	0.515693	-0.259321	0.485606	0	1.41296	0	0	-0.201006	-0.186113	-0.132299	0.882436	1.5708	0	0
55.28	-0.548117	1.40731	2.04675	0.67444	0.82866	0.90776	0.68835	-0.211469	-0.0775847	1.23038	0.10563	0	0	0.556515	-0.05035	-0.212263	1.1227	0.0982389	0	0	-0.0833118	0.164054	-0.229374	0.517134	-0.263039	0.486522	0	1.40136	0	0	-0.198683	-0.186837	-0.130001	0.881223	1.5708	0	0
55.29	-0.569141	1.40766	2.06823	0.674426	0.828367	0.902893	0.695768	-0.214295	-0.0715857	1.24959	0.116119	0	0	0.563746	-0.0481492	-0.2096	1.1454	0.108398	0	0	-0.0874041	0.165985	-0.229623	0.51903	-0.26673	0.486898	0	1.38522	0	0	-0.195674	-0.187338	-0.127392	0.879265	1.5708	0	0
55.3	-0.58885	1.40848	2.08927	0.674281	0.828134	0.898203	0.702107	-0.217462	-0.0670024	1.26837	0.126084	0	0	0.570273	-0.0460686	-0.206561	1.16748	0.118021	0	0	-0.0916569	0.168768	-0.23081	0.521053	-0.270574	0.487023	0	1.36871	0	0	-0.192273	-0.187297	-0.124863	0.876295	1.5708	0	0
